<svg width="16" height="16" viewBox="0 0 16 16" fill="none" xmlns="http://www.w3.org/2000/svg">
<path d="M10.8563 1.38305e-07C10.0533 -0.000184018 9.26141 0.187738 8.54408 0.548708C7.82676 0.909677 7.20396 1.43366 6.7256 2.07866C6.24724 2.72366 5.92661 3.47174 5.78942 4.26296C5.65222 5.05419 5.70228 5.86654 5.93556 6.63494L0 12.5705V15.9988H3.42832L9.36388 10.0633C10.0712 10.278 10.8165 10.3376 11.549 10.2383C12.2814 10.1389 12.9839 9.88274 13.6084 9.48732C14.233 9.09191 14.7649 8.5665 15.168 7.9469C15.5711 7.32731 15.8359 6.62809 15.9444 5.8969C16.0528 5.16571 16.0024 4.41973 15.7964 3.70981C15.5905 2.99989 15.2339 2.3427 14.751 1.78305C14.2681 1.22339 13.6703 0.774413 12.9982 0.466715C12.3261 0.159016 11.5955 -0.000171287 10.8563 1.38305e-07ZM10.8563 9.14218C10.463 9.14197 10.0717 9.08383 9.69529 8.96963L9.03991 8.77078L8.55594 9.25475L6.73836 11.0723L5.95042 10.285L5.14248 11.0929L5.93042 11.8808L5.0242 12.7871L4.23626 11.9991L3.42832 12.8071L4.21626 13.595L2.95521 14.856H1.14277V13.0436L6.7435 7.44288L7.22804 6.95892L7.0292 6.30354C6.78497 5.49845 6.80084 4.63685 7.07454 3.8413C7.34823 3.04575 7.86582 2.35676 8.55368 1.87233C9.24153 1.38791 10.0646 1.13273 10.9059 1.14308C11.7471 1.15343 12.5637 1.42878 13.2394 1.92998C13.9152 2.43118 14.4156 3.1327 14.6697 3.93474C14.9237 4.73678 14.9184 5.59851 14.6544 6.39735C14.3905 7.19618 13.8813 7.89145 13.1995 8.38424C12.5176 8.87703 11.6977 9.14225 10.8563 9.14218Z" fill="#7F7F7F"/>
</svg>
