<svg width="15" height="11" viewBox="0 0 15 11" fill="none" xmlns="http://www.w3.org/2000/svg">
<path d="M2.32941 0H12.4235C13.0413 0 13.6338 0.231785 14.0707 0.644365C14.5075 1.05695 14.7529 1.61652 14.7529 2.2V8.8C14.7529 9.38348 14.5075 9.94305 14.0707 10.3556C13.6338 10.7682 13.0413 11 12.4235 11H2.32941C1.71161 11 1.11912 10.7682 0.682269 10.3556C0.24542 9.94305 0 9.38348 0 8.8V2.2C0 1.61652 0.24542 1.05695 0.682269 0.644365C1.11912 0.231785 1.71161 0 2.32941 0ZM2.32941 0.733333C1.94118 0.733333 1.59953 0.858 1.33553 1.078L7.37647 4.76667L13.4174 1.078C13.1534 0.858 12.8118 0.733333 12.4235 0.733333H2.32941ZM7.37647 5.654L0.877412 1.672C0.815294 1.83333 0.776471 2.01667 0.776471 2.2V8.8C0.776471 9.18898 0.940084 9.56204 1.23132 9.83709C1.52255 10.1121 1.91755 10.2667 2.32941 10.2667H12.4235C12.8354 10.2667 13.2304 10.1121 13.5216 9.83709C13.8129 9.56204 13.9765 9.18898 13.9765 8.8V2.2C13.9765 2.01667 13.9376 1.83333 13.8755 1.672L7.37647 5.654Z" fill="#7F7F7F"/>
</svg>
