<svg width="12" height="12" viewBox="0 0 12 12" fill="none" xmlns="http://www.w3.org/2000/svg">
<path d="M0.375058 10.9185C0.61602 11.1939 0.94322 11.3807 1.28468 11.4378C1.62613 11.4949 1.95388 11.4176 2.19581 11.2229L9.42043 5.40852L9.41084 10.0647C9.42194 10.3912 9.56202 10.7222 9.80157 10.9879C10.0411 11.2536 10.3614 11.4332 10.695 11.489C11.0286 11.5447 11.3494 11.4723 11.5899 11.2868C11.8304 11.1014 11.9717 10.8174 11.9842 10.4948L12 2.81339C12.0005 2.48119 11.8655 2.14002 11.6247 1.86481C11.384 1.58961 11.0571 1.40288 10.7159 1.34564L2.82599 0.0267081C2.65321 -0.00811402 2.48091 -0.00890212 2.31935 0.0243908C2.1578 0.0576838 2.01031 0.124376 1.88567 0.220488C1.76104 0.316601 1.66182 0.440164 1.59393 0.583808C1.52604 0.727452 1.49087 0.888234 1.49052 1.05656C1.49018 1.22489 1.52466 1.39731 1.59191 1.56355C1.65916 1.72978 1.75781 1.88642 1.88196 2.02412C2.00611 2.16182 2.15323 2.27777 2.31453 2.36503C2.47584 2.45229 2.64803 2.50909 2.82083 2.53204L7.60333 3.33151L0.378707 9.14587C-0.124827 9.55111 -0.126462 10.3453 0.375058 10.9185Z" fill="white"/>
</svg>
