<svg width="16" height="16" viewBox="0 0 16 16" fill="none" xmlns="http://www.w3.org/2000/svg">
<path d="M10.8563 1.38305e-07C10.0533 -0.000184018 9.2614 0.187738 8.54407 0.548707C7.82675 0.909676 7.20395 1.43366 6.72559 2.07865C6.24723 2.72365 5.9266 3.47174 5.78941 4.26296C5.65222 5.05418 5.70227 5.86654 5.93556 6.63493L0 12.5705V15.9988H3.42832L9.36387 10.0632C10.0712 10.2779 10.8165 10.3376 11.549 10.2383C12.2814 10.1389 12.9839 9.88273 13.6084 9.48732C14.2329 9.0919 14.7649 8.56649 15.168 7.9469C15.5711 7.3273 15.8359 6.62808 15.9444 5.89689C16.0528 5.1657 16.0023 4.41973 15.7964 3.70981C15.5905 2.99988 15.2339 2.3427 14.751 1.78304C14.2681 1.22339 13.6703 0.774412 12.9982 0.466714C12.3261 0.159016 11.5955 -0.000171287 10.8563 1.38305e-07ZM10.8563 9.14218C10.4629 9.14196 10.0717 9.08382 9.69528 8.96962L9.0399 8.77077L8.55593 9.25474L6.73835 11.0723L5.95041 10.2849L5.14247 11.0929L5.93041 11.8808L5.0242 12.787L4.23626 11.9991L3.42832 12.807L4.21626 13.595L2.95521 14.856H1.14277V13.0436L6.7435 7.44287L7.22803 6.95891L7.02919 6.30353C6.78497 5.49844 6.80083 4.63684 7.07453 3.84129C7.34823 3.04574 7.86581 2.35675 8.55367 1.87233C9.24152 1.38791 10.0646 1.13272 10.9059 1.14307C11.7471 1.15342 12.5637 1.42878 13.2394 1.92998C13.9151 2.43118 14.4156 3.13269 14.6697 3.93474C14.9237 4.73678 14.9184 5.59851 14.6544 6.39734C14.3905 7.19618 13.8813 7.89144 13.1994 8.38423C12.5176 8.87702 11.6976 9.14224 10.8563 9.14218Z" fill="#7F7F7F"/>
</svg>
