<svg width="23" height="23" viewBox="0 0 23 23" fill="none" xmlns="http://www.w3.org/2000/svg">
<path d="M22.7763 9.24773H21.85V9.2H11.5V13.8H17.9992C17.0511 16.4778 14.5032 18.4 11.5 18.4C7.68948 18.4 4.6 15.3105 4.6 11.5C4.6 7.68948 7.68948 4.6 11.5 4.6C13.2589 4.6 14.8592 5.26355 16.0776 6.34742L19.3304 3.09465C17.2765 1.18047 14.5291 0 11.5 0C5.14913 0 0 5.14913 0 11.5C0 17.8509 5.14913 23 11.5 23C17.8509 23 23 17.8509 23 11.5C23 10.7289 22.9206 9.97625 22.7763 9.24773Z" fill="#FFC107"/>
</svg>
