<svg width="9" height="16" viewBox="0 0 9 16" fill="none" xmlns="http://www.w3.org/2000/svg">
<path d="M1.93238 7.99997L8.56671 14.6327C8.71691 14.7829 8.80129 14.9866 8.80129 15.199C8.80129 15.4114 8.71691 15.6152 8.56671 15.7654C8.41651 15.9156 8.2128 15.9999 8.00039 15.9999C7.78797 15.9999 7.58426 15.9156 7.43406 15.7654L0.234999 8.56629C0.160508 8.49199 0.101407 8.40372 0.0610821 8.30654C0.0207571 8.20936 0 8.10518 0 7.99997C0 7.89475 0.0207571 7.79057 0.0610821 7.6934C0.101407 7.59622 0.160508 7.50795 0.234999 7.43364L7.43406 0.23458C7.58426 0.0843808 7.78797 0 8.00039 0C8.2128 0 8.41651 0.0843808 8.56671 0.23458C8.71691 0.384779 8.80129 0.588493 8.80129 0.800906C8.80129 1.01332 8.71691 1.21703 8.56671 1.36723L1.93238 7.99997Z" fill="#007EF2"/>
</svg>
