<svg width="10" height="12" viewBox="0 0 10 12" fill="none" xmlns="http://www.w3.org/2000/svg">
<path d="M4.79999 0C4.16347 0 3.55302 0.252856 3.10294 0.702943C2.65285 1.15303 2.4 1.76348 2.4 2.4C2.4 3.03651 2.65285 3.64696 3.10294 4.09705C3.55302 4.54714 4.16347 4.79999 4.79999 4.79999C5.43651 4.79999 6.04696 4.54714 6.49704 4.09705C6.94713 3.64696 7.19999 3.03651 7.19999 2.4C7.19999 1.76348 6.94713 1.15303 6.49704 0.702943C6.04696 0.252856 5.43651 0 4.79999 0ZM3.59999 2.4C3.59999 2.08174 3.72642 1.77651 3.95147 1.55147C4.17651 1.32643 4.48173 1.2 4.79999 1.2C5.11825 1.2 5.42347 1.32643 5.64852 1.55147C5.87356 1.77651 5.99999 2.08174 5.99999 2.4C5.99999 2.71826 5.87356 3.02348 5.64852 3.24852C5.42347 3.47357 5.11825 3.59999 4.79999 3.59999C4.48173 3.59999 4.17651 3.47357 3.95147 3.24852C3.72642 3.02348 3.59999 2.71826 3.59999 2.4ZM7.79999 5.99999H1.8C1.32261 5.99999 0.864772 6.18963 0.527207 6.5272C0.189642 6.86476 0 7.3226 0 7.79999C0 9.13918 0.550799 10.212 1.4544 10.938C2.3436 11.652 3.53639 12 4.79999 12C6.06359 12 7.25639 11.652 8.14559 10.938C9.04798 10.212 9.59998 9.13918 9.59998 7.79999C9.59998 7.3226 9.41034 6.86476 9.07278 6.5272C8.73521 6.18963 8.27737 5.99999 7.79999 5.99999ZM1.8 7.19999H7.79999C7.95912 7.19999 8.11173 7.2632 8.22425 7.37572C8.33677 7.48825 8.39998 7.64086 8.39998 7.79999C8.39998 8.78039 8.00999 9.50758 7.39439 10.002C6.76319 10.5084 5.85599 10.8 4.79999 10.8C3.74399 10.8 2.83679 10.5084 2.2056 10.002C1.59 9.50758 1.2 8.78039 1.2 7.79999C1.2 7.64086 1.26321 7.48825 1.37573 7.37572C1.48826 7.2632 1.64087 7.19999 1.8 7.19999Z" fill="#7F7F7F"/>
</svg>
